<svg id="Layer_1" data-name="Layer 1" xmlns="http://www.w3.org/2000/svg" viewBox="0 0 435.78 487.35"><defs><style>.cls-1{opacity:0.5;}.cls-2{stroke:#000;stroke-linecap:round;stroke-linejoin:round;stroke-width:7px;}</style></defs><title>mycoffee_beans</title><g id="drawaing"><g class="cls-1"><path d="M423.86,308.1c31.57,86.9-80,198.42-166.91,166.73-8-2.9-8.22-9.43.06-11.79.6-.12,1.21-.3,1.81-.48a126.82,126.82,0,0,0,21.77-8.47,90.15,90.15,0,0,0,16.75-10.83,73.48,73.48,0,0,0,12.33-12.94c6.47-8.71,10.83-18.87,13.67-29.39,2.72-9.8,4.11-19.9,5.5-30,1.27-9.13,2.54-18.26,5-27.15,2.18-8.1,5.32-16,10.22-22.68,5.56-7.56,13.43-13.55,21.89-17.84a102.91,102.91,0,0,1,18-6.77,164.9,164.9,0,0,1,16.39-3.69C411.82,290.75,419.67,296.67,423.86,308.1Z" transform="translate(3.24 3.11)"/><path d="M379.89,264.14c8,2.9,8.29,9.43,0,11.79l-1.87.54a115,115,0,0,0-21.71,8.35c-11.31,5.68-21.65,13.73-29.15,23.83-6.41,8.65-10.76,18.87-13.67,29.39-2.66,9.8-4,19.9-5.44,29.94-1.33,9.13-2.6,18.32-5,27.21-2.18,8-5.32,15.9-10.22,22.62a55.86,55.86,0,0,1-9,9.49,71.08,71.08,0,0,1-12.88,8.35,105,105,0,0,1-18.08,6.83c-5.38,1.51-10.83,2.72-16.33,3.69-11.43,2.06-19.35-3.93-23.46-15.3C181.47,343.89,293,232.39,379.89,264.14Z" transform="translate(3.24 3.11)"/><path d="M360.72,31.43c53,75.84-25.82,212.45-118,204.29-8.53-.73-10.46-7-3-11.37.54-.36,1.09-.67,1.63-1a119.29,119.29,0,0,0,18.87-13.73c9.37-8.41,17.3-18.81,21.89-30.48,4-10.1,5.56-21.11,5.62-32,.06-10.16-1.21-20.26-2.48-30.36-1.09-9.13-2.24-18.32-2.18-27.58,0-8.35,1-16.69,4-24.49a53.11,53.11,0,0,1,6.29-11.49,68,68,0,0,1,10.31-11.39,99.83,99.83,0,0,1,15.66-11.25,164.89,164.89,0,0,1,14.82-7.86C344.67,17.82,353.83,21.51,360.72,31.43Z" transform="translate(3.24 3.11)"/><path d="M307,.35c8.53.73,10.4,7,3,11.37-.6.36-1.15.67-1.69,1a127.28,127.28,0,0,0-18.81,13.79,88.54,88.54,0,0,0-13.34,14.78A72.25,72.25,0,0,0,267.53,57c-4,10.1-5.56,21-5.62,31.93-.06,10.16,1.21,20.26,2.48,30.36,1.14,9.19,2.28,18.32,2.28,27.59-.06,8.35-1.09,16.81-4,24.49-3.45,8.77-9.49,16.57-16.57,22.92a97.88,97.88,0,0,1-15.6,11.19c-4.84,2.84-9.8,5.44-14.88,7.86-10.52,5-19.65,1.21-26.61-8.71C135.88,128.8,214.8-7.76,307,.35Z" transform="translate(3.24 3.11)"/><path d="M71.47,163.89c92.16-8.1,171,128.45,118,204.29-6.89,9.92-16.09,13.67-26.61,8.71-5.08-2.42-10-5-14.82-7.86a98.38,98.38,0,0,1-15.66-11.19c-7.08-6.35-13.12-14.15-16.51-22.92-3-7.68-4.05-16.15-4.05-24.49-.06-9.25,1.09-18.38,2.18-27.58,1.27-10.1,2.54-20.2,2.48-30.36-.06-10.89-1.57-21.83-5.56-31.93a77.77,77.77,0,0,0-8.59-15.72A88.54,88.54,0,0,0,89,190.08a127.82,127.82,0,0,0-18.87-13.79c-.54-.36-1.09-.67-1.63-1C61,170.89,62.94,164.6,71.47,163.89Z" transform="translate(3.24 3.11)"/><path d="M138.67,387.89c7.38,4.35,5.5,10.64-3,11.37C43.53,407.4-35.39,270.79,17.67,195c7-9.92,16.09-13.61,26.61-8.71a164.89,164.89,0,0,1,14.82,7.86,99.83,99.83,0,0,1,15.66,11.25A65.83,65.83,0,0,1,85.1,216.73a55.58,55.58,0,0,1,6.23,11.49c3,7.8,4,16.15,4.05,24.49a221.13,221.13,0,0,1-2.24,27.58c-1.27,10.1-2.54,20.2-2.48,30.36.06,10.89,1.63,21.89,5.62,32,4.6,11.67,12.52,22.07,22,30.48A122.71,122.71,0,0,0,137,386.89,16.08,16.08,0,0,1,138.67,387.89Z" transform="translate(3.24 3.11)"/></g><path d="M423.57,308.51c31.57,86.9-80,198.42-166.91,166.73-8-2.9-8.22-9.43.06-11.79.6-.12,1.21-.3,1.81-.48a126.82,126.82,0,0,0,21.77-8.47A90.15,90.15,0,0,0,297,443.67a73.48,73.48,0,0,0,12.34-12.94c6.47-8.71,10.83-18.87,13.67-29.39,2.72-9.8,4.11-19.9,5.5-30,1.27-9.13,2.54-18.26,5-27.15,2.18-8.1,5.32-16,10.22-22.68,5.56-7.56,13.43-13.55,21.89-17.84a102.91,102.91,0,0,1,18-6.78,164.9,164.9,0,0,1,16.39-3.69C411.54,291.15,419.4,297.08,423.57,308.51Z" transform="translate(3.24 3.11)"/><path d="M379.6,264.55c8,2.9,8.29,9.43,0,11.79l-1.87.54A115,115,0,0,0,356,285.23,81.62,81.62,0,0,0,326.87,309c-6.41,8.65-10.76,18.87-13.67,29.39-2.66,9.8-4,19.9-5.44,29.94-1.33,9.13-2.6,18.32-5,27.21-2.18,8-5.32,15.9-10.22,22.62a55.86,55.86,0,0,1-9,9.49A71.08,71.08,0,0,1,270.67,436a105,105,0,0,1-18.12,6.84c-5.38,1.51-10.83,2.72-16.33,3.69-11.43,2.06-19.35-3.93-23.46-15.3C181.19,344.31,292.67,232.8,379.6,264.55Z" transform="translate(3.24 3.11)"/><path d="M360.43,31.84c53,75.84-25.82,212.45-118,204.29-8.53-.73-10.46-7-3-11.37.54-.36,1.09-.67,1.63-1A119.29,119.29,0,0,0,259.93,210c9.37-8.41,17.3-18.81,21.89-30.48,4-10.1,5.56-21.11,5.62-32,.06-10.16-1.21-20.26-2.48-30.36-1.09-9.13-2.24-18.32-2.18-27.58,0-8.35,1-16.69,4-24.49a53.11,53.11,0,0,1,6.29-11.49,68,68,0,0,1,10.28-11.37A99.83,99.83,0,0,1,319,31a164.89,164.89,0,0,1,14.82-7.86C344.35,18.23,353.54,21.89,360.43,31.84Z" transform="translate(3.24 3.11)"/><path d="M306.67.75c8.53.73,10.4,7,3,11.37-.6.36-1.15.67-1.69,1a127.28,127.28,0,0,0-18.79,13.77,88.54,88.54,0,0,0-13.36,14.8,72.25,72.25,0,0,0-8.59,15.72c-4,10.1-5.56,21-5.62,31.93-.06,10.16,1.21,20.26,2.48,30.36,1.15,9.19,2.24,18.32,2.24,27.58-.06,8.35-1.09,16.81-4,24.49-3.45,8.77-9.49,16.57-16.57,22.92a97.88,97.88,0,0,1-15.61,11.2c-4.84,2.84-9.8,5.44-14.88,7.86-10.52,5-19.65,1.21-26.61-8.71C135.59,129.2,214.51-7.35,306.67.75Z" transform="translate(3.24 3.11)"/><path d="M71.18,164.28c92.16-8.1,171,128.45,118,204.29-6.89,9.92-16.09,13.67-26.61,8.71-5.08-2.42-10-5-14.82-7.86a98.38,98.38,0,0,1-15.66-11.19c-7.08-6.35-13.12-14.15-16.51-22.92-3-7.68-4.05-16.15-4.05-24.49-.06-9.25,1.09-18.38,2.18-27.58,1.27-10.1,2.54-20.2,2.48-30.36-.06-10.89-1.57-21.83-5.56-31.93A77.77,77.77,0,0,0,102,205.23a88.54,88.54,0,0,0-13.37-14.77A127.82,127.82,0,0,0,69.8,176.67c-.54-.36-1.09-.67-1.63-1C60.67,171.29,62.67,165,71.18,164.28Z" transform="translate(3.24 3.11)"/><path d="M138.43,388.28c7.38,4.35,5.5,10.64-3,11.37-92.16,8.16-171.08-128.45-118-204.29,7-9.92,16.09-13.61,26.61-8.71a164.89,164.89,0,0,1,14.82,7.86,99.83,99.83,0,0,1,15.66,11.25,65.83,65.83,0,0,1,10.34,11.37,55.58,55.58,0,0,1,6.23,11.49c3,7.8,4,16.15,4.05,24.49a221.13,221.13,0,0,1-2.24,27.58c-1.27,10.1-2.54,20.2-2.48,30.36.06,10.89,1.63,21.89,5.62,32,4.6,11.67,12.52,22.07,22,30.48a122.71,122.71,0,0,0,18.81,13.73C137.28,387.61,137.88,387.89,138.43,388.28Z" transform="translate(3.24 3.11)"/><path class="cls-2" d="M189.17,368.56c-6.89,9.92-16.09,13.67-26.61,8.71-5.08-2.42-10-5-14.82-7.86a98.38,98.38,0,0,1-15.66-11.19C125,351.87,119,344.07,115.57,335.3c-3-7.68-4.05-16.15-4.05-24.49-.06-9.25,1.09-18.38,2.18-27.58,1.27-10.1,2.54-20.2,2.48-30.36-.06-10.89-1.57-21.83-5.56-31.93A77.77,77.77,0,0,0,102,205.22a88.54,88.54,0,0,0-13.36-14.76A127.82,127.82,0,0,0,69.8,176.67c-.54-.36-1.09-.67-1.63-1-7.44-4.35-5.5-10.64,3-11.37C163.35,156.17,242.2,292.73,189.17,368.56Z" transform="translate(3.24 3.11)"/><path class="cls-2" d="M44,186.65c-10.52-4.9-19.65-1.21-26.61,8.71-53,75.84,25.88,212.45,118,204.29,8.53-.73,10.4-7,3-11.37-.54-.36-1.15-.67-1.69-1a122.71,122.71,0,0,1-18.81-13.73c-9.43-8.41-17.36-18.81-22-30.48-4-10.1-5.56-21.11-5.62-32-.06-10.16,1.21-20.26,2.48-30.36A221.13,221.13,0,0,0,95,253.13c-.06-8.35-1-16.69-4.05-24.49a55.58,55.58,0,0,0-6.23-11.49,65.83,65.83,0,0,0-10.34-11.37,99.83,99.83,0,0,0-15.66-11.25A164.89,164.89,0,0,0,44,186.65Z" transform="translate(3.24 3.11)"/><path class="cls-2" d="M423.57,308.51c-4.17-11.43-12-17.36-23.46-15.3a164.9,164.9,0,0,0-16.44,3.68,102.91,102.91,0,0,0-18,6.77c-8.47,4.29-16.33,10.28-21.89,17.84-4.9,6.65-8,14.57-10.22,22.68-2.48,8.89-3.75,18-5,27.15-1.39,10.1-2.78,20.2-5.5,30-2.84,10.52-7.2,20.68-13.67,29.39A73.48,73.48,0,0,1,297,443.66a90.15,90.15,0,0,1-16.75,10.83A126.82,126.82,0,0,1,258.53,463c-.6.18-1.21.36-1.81.48-8.29,2.36-8.1,8.89-.06,11.79C343.56,506.89,455.14,395.41,423.57,308.51Z" transform="translate(3.24 3.11)"/><path class="cls-2" d="M236.22,446.58c-11.43,2.06-19.35-3.93-23.46-15.3-31.57-87,79.95-198.48,166.85-166.73,8,2.9,8.29,9.43,0,11.79l-1.87.54A115,115,0,0,0,356,285.23,81.57,81.57,0,0,0,326.87,309c-6.41,8.65-10.76,18.87-13.67,29.39-2.66,9.8-4,19.9-5.44,29.94-1.33,9.13-2.6,18.32-5,27.21-2.18,8-5.32,15.9-10.22,22.62a55.86,55.86,0,0,1-9,9.49A71.08,71.08,0,0,1,270.67,436a105,105,0,0,1-18.12,6.84C247.16,444.4,241.72,445.61,236.22,446.58Z" transform="translate(3.24 3.11)"/><path class="cls-2" d="M188.67,205c7,9.92,16.09,13.67,26.61,8.71,5.08-2.42,10-5,14.88-7.86a97.88,97.88,0,0,0,15.51-11.19c7.08-6.35,13.12-14.15,16.57-22.92,3-7.68,4-16.15,4-24.49,0-9.25-1.09-18.38-2.24-27.58-1.27-10.1-2.54-20.2-2.48-30.36.06-10.89,1.63-21.83,5.62-31.93a72.25,72.25,0,0,1,8.59-15.72,88.54,88.54,0,0,1,13.41-14.81A127.28,127.28,0,0,1,308,13.1c.54-.36,1.09-.67,1.69-1,7.38-4.35,5.5-10.64-3-11.37C214.51-7.35,135.59,129.2,188.67,205Z" transform="translate(3.24 3.11)"/><path class="cls-2" d="M333.82,23.13c10.52-4.9,19.71-1.21,26.61,8.71,53,75.84-25.82,212.45-118,204.29-8.53-.73-10.46-7-3-11.37.54-.36,1.09-.67,1.63-1A119.29,119.29,0,0,0,259.93,210c9.37-8.41,17.3-18.81,21.89-30.48,4-10.1,5.56-21.11,5.62-32,.06-10.16-1.21-20.26-2.48-30.36-1.09-9.13-2.24-18.32-2.18-27.58,0-8.35,1-16.69,4-24.49a53.11,53.11,0,0,1,6.29-11.49,68,68,0,0,1,10.28-11.37A99.83,99.83,0,0,1,319,31,164.89,164.89,0,0,1,333.82,23.13Z" transform="translate(3.24 3.11)"/></g></svg>